<svg xmlns="http://www.w3.org/2000/svg" width="1328.504" height="622.794" viewBox="0 0 1328.504 622.794">
  <g id="Group_272" data-name="Group 272" transform="translate(-14359.604 922.983)">
    <path id="Path_762" data-name="Path 762" d="M14936.211-1319.232h-96.441l4.728,600.375h382.936Z" transform="translate(-480.166 398.943)" fill="#f2f2f2"/>
    <path id="Path_761" data-name="Path 761" d="M15246.256-1319.446l-374.467-.386,290.246,595.155,377.184-1.161Z" transform="translate(-368.337 396.849)" fill="#f2f2f2"/>
    <path id="Path_760" data-name="Path 760" d="M15344.258-1319.746h-378.207l293.713,598.114h380.309Z" transform="translate(-39.141 397.149)" fill="#f2f2f2"/>
    <path id="Path_227" data-name="Path 227" d="M129.779,718.287c-.209-.342-5.143-8.581-6.854-25.688-1.569-15.7-.56-42.151,13.16-79.054,25.993-69.911-5.99-126.319-6.317-126.881l1.578-.915c.083.142,8.336,14.524,13.211,37.425a163.274,163.274,0,0,1-6.762,91.007c-25.948,69.792-6.657,102.831-6.459,103.157Z" transform="translate(14450.802 -1060.518)" fill="#3f3d56"/>
    <circle id="Ellipse_86" data-name="Ellipse 86" cx="11.854" cy="11.854" r="11.854" transform="translate(14558.559 -605.324)" fill="#6c63ff"/>
    <circle id="Ellipse_87" data-name="Ellipse 87" cx="11.854" cy="11.854" r="11.854" transform="translate(14595.946 -560.485)" fill="#3f3d56"/>
    <circle id="Ellipse_88" data-name="Ellipse 88" cx="11.854" cy="11.854" r="11.854" transform="translate(14570.413 -530.592)" fill="#6c63ff"/>
    <circle id="Ellipse_89" data-name="Ellipse 89" cx="11.854" cy="11.854" r="11.854" transform="translate(14601.417 -505.37)" fill="#6c63ff"/>
    <circle id="Ellipse_90" data-name="Ellipse 90" cx="11.854" cy="11.854" r="11.854" transform="translate(14561.297 -466.136)" fill="#3f3d56"/>
    <path id="Path_228" data-name="Path 228" d="M138.165,736.313s-11.854-29.179,23.708-51.063Z" transform="translate(14449.577 -1076.234)" fill="#3f3d56"/>
    <path id="Path_229" data-name="Path 229" d="M117.8,737.7s-5.395-31.029-47.15-30.763Z" transform="translate(14455.36 -1077.973)" fill="#3f3d56"/>
    <path id="Path_230" data-name="Path 230" d="M977.292,549.737H135.333v-2.458H976.06Z" transform="translate(14514.079 -959.483)" fill="#2f2e41"/>
    <path id="Path_231" data-name="Path 231" d="M296.887,148.239h0c30.689,0,55.567,27.609,55.567,61.667v43.271H339.145l-7.7-16.032,1.926,16.032H247.828l-7-14.575,1.751,14.575h-9.631V219.2C232.944,180.01,261.572,148.239,296.887,148.239Z" transform="translate(14441.052 -1040.533)" fill="#2f2e41"/>
    <path id="Path_232" data-name="Path 232" d="M402.122,225.13l-14.475-49.811s-9.585-31-25.549-30.306,9.779,37.618,9.779,37.618L383.04,212.9l2.388,11.347Z" transform="translate(14430.123 -1040.56)" fill="#a0616a"/>
    <path id="Path_233" data-name="Path 233" d="M334.28,358,347.8,386.271l-54.082,36.874-28.27-24.583s2.458-17.208-4.917-23.354S334.28,358,334.28,358Z" transform="translate(14438.661 -1054.624)" fill="#a0616a"/>
    <path id="Path_234" data-name="Path 234" d="M319.575,233.79s-18.437,27.041-15.979,30.728-43.02-7.375-43.02-7.375,23.353-30.728,23.353-39.332Z" transform="translate(14438.615 -1045.638)" fill="#a0616a"/>
    <path id="Path_235" data-name="Path 235" d="M319.575,233.79s-18.437,27.041-15.979,30.728-43.02-7.375-43.02-7.375,23.353-30.728,23.353-39.332Z" transform="translate(14438.615 -1045.638)" opacity="0.2"/>
    <circle id="Ellipse_91" data-name="Ellipse 91" cx="28.906" cy="28.906" r="28.906" transform="translate(14717.43 -866.952)" fill="#a0616a"/>
    <path id="Path_236" data-name="Path 236" d="M267.161,235.335l43.02,17.208v9.833s27.041-3.688,33.186,0S359.346,293.1,359.346,293.1s24.582,36.874,15.979,40.561-24.583,7.375-30.728,15.979-52.853,9.833-52.853,9.833-17.208,4.917-24.583,12.291-22.125,0-22.125,0l-7.375-119.226,23.354-7.375Z" transform="translate(14440.633 -1045.801)" fill="#3f3d56"/>
    <path id="Path_237" data-name="Path 237" d="M346.848,263.846l13.52-3.687s20.9-3.687,20.9-6.146-2.458-4.917,0-4.917,7.375,0,4.917-3.687,1.229-9.833-3.687-12.291-8.6-3.687-6.146-4.917-6.146-20.9-6.146-20.9l7.375-3.687,8.6,13.52,1.229-18.437,13.52-2.458,4.917,22.124s24.583,31.957,7.375,49.165-50.395,30.728-50.395,30.728Z" transform="translate(14431.007 -1043.678)" fill="#3f3d56"/>
    <path id="Path_238" data-name="Path 238" d="M332.468,381.789l8.6-4.916S371.8,412.517,371.8,520.68s-6.146,157.329-9.833,156.1-24.583,7.375-28.27,3.688-28.27-183.14-28.27-183.14-77.435,185.6-89.727,185.6-31.958-3.687-31.958-11.061,36.874-105.706,36.874-105.706,23.354-172.079,34.416-173.308L259,390.437l29.221,19.623Z" transform="translate(14445.387 -1052.527)" fill="#2f2e41"/>
    <path id="Path_239" data-name="Path 239" d="M354.723,705.778h11.062s9.833,9.833,13.52,33.187,7.375,38.1-8.6,38.1-25.812-3.687-24.583-12.292-2.458-12.291-2.458-12.291-6.146-11.062-4.917-17.208,4.917-25.812,4.917-25.812Z" transform="translate(14431.735 -1077.257)" fill="#2f2e41"/>
    <path id="Path_240" data-name="Path 240" d="M211.092,708s12.291,31.958,3.687,39.332-12.291,8.6-12.291,8.6-12.291,2.458-13.52,6.146-18.437,17.208-34.415,9.833-6.146-23.353-6.146-23.353l36.874-45.478S198.8,705.541,198.8,708,211.092,708,211.092,708Z" transform="translate(14448.768 -1077.086)" fill="#2f2e41"/>
    <path id="Path_241" data-name="Path 241" d="M284.97,417.814a23.676,23.676,0,0,1,11.563-5.855l-1.235,5.795a9.228,9.228,0,0,0-.13,4.991c.993,2.779,4.25,3.895,7.1,4.647,3.224.85,6.9,2.077,8.079,5.2,1.006,2.663-.282,5.628-1.851,8a32.87,32.87,0,0,1-5.184,6.08c-3.564,3.273-8.465,5.833-13.128,4.543a27.805,27.805,0,0,1-4.044-1.723c-3.338-1.525-6.967-2.361-10.248-4-6.7-3.355-11.307-9.7-15.646-15.809a3.066,3.066,0,0,1-.813-2.275,2.861,2.861,0,0,1,.526-1.024c2.51-3.539,7.873-10.267,11.954-5.687,1.284,1.441,2.287,2.9,4.416,2.907C279.98,423.615,282.573,420.037,284.97,417.814Z" transform="translate(14438.714 -1058.465)" fill="#a0616a"/>
    <path id="Path_242" data-name="Path 242" d="M243.521,256.664l-8.6-2.458s-15.979,0-20.9,24.583S202.96,380.807,209.105,393.1s36.874,38.1,36.874,38.1l24.583-23.354L255.812,393.1s-3.687,1.229-3.687-3.687,4.917-2.458,0-4.916-3.687,1.229-4.917-2.458S243.521,256.664,243.521,256.664Z" transform="translate(14443.378 -1046.58)" fill="#3f3d56"/>
    <path id="Path_243" data-name="Path 243" d="M281.659,167.724a25.961,25.961,0,0,1,20.484-10.453h.972c18.738,0,33.928,16.956,33.928,37.872h-6.279l-1.014-7.718-1.487,7.718H291.025l-3.12-6.53.78,6.53H281.36q-5.128,25.466,14.735,50.932H283.616l-6.24-13.059,1.56,13.059H255.148l-4.68-30.037C250.468,193.543,263.538,174.468,281.659,167.724Z" transform="translate(14439.508 -1041.277)" fill="#2f2e41"/>
    <path id="Path_245" data-name="Path 245" d="M816.287,363.613a153.61,153.61,0,0,1-274.71-11.222q3.964-6.066,8.419-11.726a141.325,141.325,0,0,0,258.868,10.583Q812.846,357.24,816.287,363.613Z" transform="translate(14413.841 -1053.047)" fill="#6c63ff"/>
    <g id="Group_214" data-name="Group 214" transform="translate(14941.945 -920.289)">
      <path id="Path_244" data-name="Path 244" d="M680.445,116.039c-84.724,0-153.642,68.917-153.642,153.642a153.641,153.641,0,0,0,307.283,0C834.086,184.956,765.156,116.039,680.445,116.039ZM807.562,331.444a141.343,141.343,0,0,1-268.468-61.764c0-77.939,63.411-141.35,141.35-141.35s141.35,63.411,141.35,141.35A140.366,140.366,0,0,1,807.562,331.444Z" transform="translate(-526.803 -116.039)" fill="#3f3d56"/>
      <path id="Path_246" data-name="Path 246" d="M654.844,293.97a18.033,18.033,0,1,1-12.648,5.3,17.794,17.794,0,0,1,12.648-5.3m0-7.682a25.612,25.612,0,1,0,25.6,25.625,25.611,25.611,0,0,0-25.6-25.625Zm53.363-36.627a8.735,8.735,0,0,0,8.779-8.78,8.642,8.642,0,0,0-8.724-8.725,8.752,8.752,0,0,0-.055,17.5Zm18.354,44.309a18.033,18.033,0,1,1-12.648,5.3,17.794,17.794,0,0,1,12.648-5.3m0-7.682a25.6,25.6,0,1,0,25.6,25.6,25.6,25.6,0,0,0-25.6-25.6Z" transform="translate(-535.832 -126.277)" fill="#6c63ff"/>
    </g>
    <path id="Path_247" data-name="Path 247" d="M724.83,268.655H711.661l-8.093-16.489a8.584,8.584,0,0,0-13.581-1.811l-19.672,18.958a8.933,8.933,0,0,0-2.551,6.146c0,4.774,3.457,6.475,5.076,7.435,12.483,7.188,16.873,7.984,16.873,11.578v18.08a4.39,4.39,0,0,0,8.78,0V287.86c0-3.622-8.34-6.585-13.252-10.426l13.416-14.13c5.13,7.819,7.49,14.13,10.426,14.13H724.83a4.39,4.39,0,0,0,0-8.78Z" transform="translate(14402.716 -1047.378)" fill="#6c63ff"/>
    <path id="Path_248" data-name="Path 248" d="M554.416,531.938c-3.781,0-6.912,11.01-7.519,25.446H474.147c-.607-14.436-3.738-25.446-7.52-25.446-4.216,0-7.633,13.671-7.633,30.534s3.418,30.535,7.633,30.535c3.782,0,6.913-11.01,7.52-25.446H546.9c.607,14.435,3.738,25.446,7.519,25.446,4.216,0,7.634-13.671,7.634-30.535S558.632,531.938,554.416,531.938Z" transform="translate(14421.122 -1066.049)" fill="#6c63ff"/>
    <path id="Path_249" data-name="Path 249" d="M586.026,511.471a90.976,90.976,0,1,0,11.529,44.3A90.975,90.975,0,0,0,586.026,511.471ZM506.55,639.485A83.3,83.3,0,1,1,565.871,615.1,83.664,83.664,0,0,1,506.55,639.485Z" transform="translate(14424.951 -1059.971)" fill="#3f3d56"/>
    <path id="Path_250" data-name="Path 250" d="M601.169,559.826A90.962,90.962,0,0,1,460.5,636.044a93.642,93.642,0,0,1-3.909-11.947A83.67,83.67,0,0,0,578,510.821a93.243,93.243,0,0,1,11.64,4.707A90.44,90.44,0,0,1,601.169,559.826Z" transform="translate(14421.335 -1063.547)" fill="#6c63ff"/>
    <path id="Path_251" data-name="Path 251" d="M866.456,464.759a91,91,0,1,0,0,182.01c.59,0,1.167,0,1.758-.025a91,91,0,1,0-1.758-181.989ZM885,637.4a83.723,83.723,0,1,1-18.6-165.367h.05A83.723,83.723,0,0,1,885,637.4Z" transform="translate(14393.22 -1059.967)" fill="#3f3d56"/>
    <path id="Path_252" data-name="Path 252" d="M885,637.588a93.611,93.611,0,0,1-16.79,9.342c-.59.024-1.168.024-1.758.024a91.006,91.006,0,0,1-18.536-180.1,93.259,93.259,0,0,1,18.486,5.371A83.722,83.722,0,1,0,885,637.588Z" transform="translate(14393.219 -1060.129)" fill="#6c63ff"/>
    <path id="Path_253" data-name="Path 253" d="M915.523,555.329a11.122,11.122,0,0,0-11.1,7.58h-8.962l-6.543-19.676a3.687,3.687,0,0,0-3.5-2.534h-.069a3.644,3.644,0,0,0-3.456,2.673l-10.252,35.78-12.049-72.366a3.7,3.7,0,0,0-7.235-.3l-12.21,56.423H826.453a3.686,3.686,0,0,0,0,7.373h16.589a3.675,3.675,0,0,0,3.571-2.788l8.616-41.978,11.82,70.939a3.659,3.659,0,0,0,3.433,3.064h.208a3.7,3.7,0,0,0,3.548-2.673l11.451-40,3.617,10.9a3.718,3.718,0,0,0,3.5,2.535h11.773a11.061,11.061,0,1,0,10.943-14.953Z" transform="translate(14389.051 -1063.723)" fill="#6c63ff"/>
    <path id="Path_759" data-name="Path 759" d="M15067.268-1317.976h336.506v598.5h-58.66Z" transform="translate(284.334 394.992)" fill="#f2f2f2"/>
  </g>
</svg>
